<svg width="54" height="54" viewBox="0 0 54 54" fill="none" xmlns="http://www.w3.org/2000/svg">
<circle cx="27" cy="27" r="27" fill="#C4DEF5"/>
<path d="M26.5 22.5455C28.675 22.5455 30.4545 24.325 30.4545 26.5C30.4545 28.675 28.675 30.4545 26.5 30.4545C24.325 30.4545 22.5455 28.675 22.5455 26.5C22.5455 24.325 24.325 22.5455 26.5 22.5455ZM26.5 19.9091C22.8618 19.9091 19.9091 22.8618 19.9091 26.5C19.9091 30.1382 22.8618 33.0909 26.5 33.0909C30.1382 33.0909 33.0909 30.1382 33.0909 26.5C33.0909 22.8618 30.1382 19.9091 26.5 19.9091ZM13.3182 27.8182H15.9545C16.6795 27.8182 17.2727 27.225 17.2727 26.5C17.2727 25.775 16.6795 25.1818 15.9545 25.1818H13.3182C12.5932 25.1818 12 25.775 12 26.5C12 27.225 12.5932 27.8182 13.3182 27.8182ZM37.0455 27.8182H39.6818C40.4068 27.8182 41 27.225 41 26.5C41 25.775 40.4068 25.1818 39.6818 25.1818H37.0455C36.3205 25.1818 35.7273 25.775 35.7273 26.5C35.7273 27.225 36.3205 27.8182 37.0455 27.8182ZM25.1818 13.3182V15.9545C25.1818 16.6795 25.775 17.2727 26.5 17.2727C27.225 17.2727 27.8182 16.6795 27.8182 15.9545V13.3182C27.8182 12.5932 27.225 12 26.5 12C25.775 12 25.1818 12.5932 25.1818 13.3182ZM25.1818 37.0455V39.6818C25.1818 40.4068 25.775 41 26.5 41C27.225 41 27.8182 40.4068 27.8182 39.6818V37.0455C27.8182 36.3205 27.225 35.7273 26.5 35.7273C25.775 35.7273 25.1818 36.3205 25.1818 37.0455ZM18.5777 16.7191C18.4558 16.5969 18.3109 16.4999 18.1515 16.4338C17.992 16.3676 17.821 16.3336 17.6484 16.3336C17.4758 16.3336 17.3048 16.3676 17.1454 16.4338C16.9859 16.4999 16.841 16.5969 16.7191 16.7191C16.5969 16.841 16.4999 16.9859 16.4338 17.1454C16.3676 17.3048 16.3336 17.4758 16.3336 17.6484C16.3336 17.821 16.3676 17.992 16.4338 18.1515C16.4999 18.3109 16.5969 18.4558 16.7191 18.5777L18.1164 19.975C18.6305 20.4891 19.4741 20.4891 19.975 19.975C20.4759 19.4609 20.4891 18.6173 19.975 18.1164L18.5777 16.7191ZM34.8836 33.025C34.7617 32.9028 34.6168 32.8059 34.4574 32.7397C34.2979 32.6736 34.127 32.6395 33.9543 32.6395C33.7817 32.6395 33.6107 32.6736 33.4513 32.7397C33.2918 32.8059 33.147 32.9028 33.025 33.025C32.9028 33.147 32.8059 33.2918 32.7397 33.4513C32.6736 33.6107 32.6395 33.7817 32.6395 33.9543C32.6395 34.127 32.6736 34.2979 32.7397 34.4574C32.8059 34.6168 32.9028 34.7617 33.025 34.8836L34.4223 36.2809C34.9364 36.795 35.78 36.795 36.2809 36.2809C36.4031 36.159 36.5001 36.0141 36.5662 35.8546C36.6324 35.6952 36.6664 35.5242 36.6664 35.3516C36.6664 35.179 36.6324 35.008 36.5662 34.8485C36.5001 34.6891 36.4031 34.5442 36.2809 34.4223L34.8836 33.025ZM36.2809 18.5777C36.4031 18.4558 36.5001 18.3109 36.5662 18.1515C36.6324 17.992 36.6664 17.821 36.6664 17.6484C36.6664 17.4758 36.6324 17.3048 36.5662 17.1454C36.5001 16.9859 36.4031 16.841 36.2809 16.7191C36.159 16.5969 36.0141 16.4999 35.8546 16.4338C35.6952 16.3676 35.5242 16.3336 35.3516 16.3336C35.179 16.3336 35.008 16.3676 34.8485 16.4338C34.6891 16.4999 34.5442 16.5969 34.4223 16.7191L33.025 18.1164C32.5109 18.6305 32.5109 19.4741 33.025 19.975C33.5391 20.4759 34.3827 20.4891 34.8836 19.975L36.2809 18.5777ZM19.975 34.8836C20.0972 34.7617 20.1941 34.6168 20.2603 34.4574C20.3264 34.2979 20.3605 34.127 20.3605 33.9543C20.3605 33.7817 20.3264 33.6107 20.2603 33.4513C20.1941 33.2918 20.0972 33.147 19.975 33.025C19.8531 32.9028 19.7082 32.8059 19.5487 32.7397C19.3893 32.6736 19.2183 32.6395 19.0457 32.6395C18.873 32.6395 18.7021 32.6736 18.5426 32.7397C18.3832 32.8059 18.2383 32.9028 18.1164 33.025L16.7191 34.4223C16.205 34.9364 16.205 35.78 16.7191 36.2809C17.2332 36.7818 18.0768 36.795 18.5777 36.2809L19.975 34.8836Z" fill="#262626"/>
</svg>
